<svg width="19" height="18" viewBox="0 0 19 18" fill="none"  xmlns="http://www.w3.org/2000/svg">
<path d="M4.3151 14.8669L2.20677 16.9752C1.91649 17.2655 1.5842 17.3304 1.2099 17.17C0.83559 17.0096 0.648438 16.7231 0.648438 16.3106V2.03353C0.648438 1.52936 0.827951 1.09776 1.18698 0.738737C1.54601 0.379709 1.9776 0.200195 2.48177 0.200195H17.1484C17.6526 0.200195 18.0842 0.379709 18.4432 0.738737C18.8023 1.09776 18.9818 1.52936 18.9818 2.03353V13.0335C18.9818 13.5377 18.8023 13.9693 18.4432 14.3283C18.0842 14.6873 17.6526 14.8669 17.1484 14.8669H4.3151ZM3.53594 13.0335H17.1484V2.03353H2.48177V14.0648L3.53594 13.0335ZM5.23177 11.2002H10.7318C10.9915 11.2002 11.2092 11.1123 11.3849 10.9367C11.5606 10.761 11.6484 10.5433 11.6484 10.2835C11.6484 10.0238 11.5606 9.8061 11.3849 9.6304C11.2092 9.45471 10.9915 9.36686 10.7318 9.36686H5.23177C4.97205 9.36686 4.75434 9.45471 4.57865 9.6304C4.40295 9.8061 4.3151 10.0238 4.3151 10.2835C4.3151 10.5433 4.40295 10.761 4.57865 10.9367C4.75434 11.1123 4.97205 11.2002 5.23177 11.2002ZM5.23177 8.4502H14.3984C14.6582 8.4502 14.8759 8.36235 15.0516 8.18665C15.2273 8.01096 15.3151 7.79325 15.3151 7.53353C15.3151 7.27381 15.2273 7.0561 15.0516 6.8804C14.8759 6.70471 14.6582 6.61686 14.3984 6.61686H5.23177C4.97205 6.61686 4.75434 6.70471 4.57865 6.8804C4.40295 7.0561 4.3151 7.27381 4.3151 7.53353C4.3151 7.79325 4.40295 8.01096 4.57865 8.18665C4.75434 8.36235 4.97205 8.4502 5.23177 8.4502ZM5.23177 5.7002H14.3984C14.6582 5.7002 14.8759 5.61235 15.0516 5.43665C15.2273 5.26096 15.3151 5.04325 15.3151 4.78353C15.3151 4.52381 15.2273 4.3061 15.0516 4.1304C14.8759 3.95471 14.6582 3.86686 14.3984 3.86686H5.23177C4.97205 3.86686 4.75434 3.95471 4.57865 4.1304C4.40295 4.3061 4.3151 4.52381 4.3151 4.78353C4.3151 5.04325 4.40295 5.26096 4.57865 5.43665C4.75434 5.61235 4.97205 5.7002 5.23177 5.7002Z" fill="currentColor"/>
</svg>
