<svg width="56" height="57" viewBox="0 0 56 57" fill="none" xmlns="http://www.w3.org/2000/svg">
<path fill-rule="evenodd" clip-rule="evenodd" d="M0 15.7034C0 12.6446 2.50721 10.1649 5.6 10.1649H50.4C53.4928 10.1649 56 12.6446 56 15.7034V40.6264C56 43.6852 53.4928 46.1649 50.4 46.1649H5.6C2.50721 46.1649 0 43.6852 0 40.6264V15.7034Z" fill="white"/>
<path fill-rule="evenodd" clip-rule="evenodd" d="M0 15.7649C0 12.6721 2.50721 10.1649 5.6 10.1649H50.4C53.4928 10.1649 56 12.6721 56 15.7649V40.5649C56 43.6577 53.4928 46.1649 50.4 46.1649H5.6C2.50721 46.1649 0 43.6577 0 40.5649V15.7649ZM5.6 12.2649H50.4C52.333 12.2649 53.9 13.8319 53.9 15.7649V40.5649C53.9 42.4979 52.333 44.0649 50.4 44.0649H5.6C3.667 44.0649 2.1 42.4979 2.1 40.5649V15.7649C2.1 13.8319 3.667 12.2649 5.6 12.2649Z" fill="#626262"/>
<path d="M8 18.1649H6V26.1649H8V18.1649Z" fill="#626262"/>
<path d="M12 18.1649H11V26.1649H12V18.1649Z" fill="#626262"/>
<path d="M13 18.1649H14V26.1649H13V18.1649Z" fill="#626262"/>
<path d="M50 18.1649H49V26.1649H50V18.1649Z" fill="#626262"/>
<path d="M15 18.1649H16V26.1649H15V18.1649Z" fill="#626262"/>
<path fill-rule="evenodd" clip-rule="evenodd" d="M17 18.1649V20.1649H21V22.1649H17V26.1649H19V24.1649H21V26.1649H23V24.1649H25V26.1649H33V24.1649H35V26.1649H37V20.1649H39V26.1649H43V18.1649H41V20.1649H39V18.1649H37V20.1649H35V18.1649H33V20.1649H31V18.1649H29V20.1649H27V18.1649H23V20.1649H21V18.1649H17ZM25 20.1649H23V22.1649H21V24.1649H23V22.1649H25V20.1649ZM27 22.1649V24.1649H29V22.1649H31V24.1649H33V22.1649H35V20.1649H33V22.1649H31V20.1649H29V22.1649H27Z" fill="#626262"/>
<path d="M45 18.1649H47V26.1649H45V18.1649Z" fill="#626262"/>
</svg>
