<svg width="56" height="57" viewBox="0 0 56 57" fill="none" xmlns="http://www.w3.org/2000/svg">
<path fill-rule="evenodd" clip-rule="evenodd" d="M0 15.7034C0 12.6446 2.50721 10.1649 5.6 10.1649H50.4C53.4928 10.1649 56 12.6446 56 15.7034V40.6264C56 43.6852 53.4928 46.1649 50.4 46.1649H5.6C2.50721 46.1649 0 43.6852 0 40.6264V15.7034Z" fill="white"/>
<path d="M30.0714 20.1649C29.4797 20.1649 29 20.6213 29 21.1843C29 21.7474 29.4797 22.2038 30.0714 22.2038H47.9286C48.5203 22.2038 49 21.7474 49 21.1843C49 20.6213 48.5203 20.1649 47.9286 20.1649H30.0714Z" fill="#626262"/>
<path d="M29 26.3492C29 25.7862 29.4797 25.3298 30.0714 25.3298H45.0714C45.6632 25.3298 46.1429 25.7862 46.1429 26.3492C46.1429 26.9122 45.6632 27.3687 45.0714 27.3687H30.0714C29.4797 27.3687 29 26.9122 29 26.3492Z" fill="#626262"/>
<path d="M44.3571 32.126C43.7654 32.126 43.2857 32.5824 43.2857 33.1455C43.2857 33.7085 43.7654 34.1649 44.3571 34.1649H47.9286C48.5203 34.1649 49 33.7085 49 33.1455C49 32.5824 48.5203 32.126 47.9286 32.126H44.3571Z" fill="#626262"/>
<path d="M29 33.1455C29 32.5824 29.4797 32.126 30.0714 32.126H39.3571C39.9489 32.126 40.4286 32.5824 40.4286 33.1455C40.4286 33.7085 39.9489 34.1649 39.3571 34.1649H30.0714C29.4797 34.1649 29 33.7085 29 33.1455Z" fill="#626262"/>
<path fill-rule="evenodd" clip-rule="evenodd" d="M21.4 22.6649C21.4 25.7025 18.9823 28.1649 16 28.1649C13.0177 28.1649 10.6 25.7025 10.6 22.6649C10.6 19.6273 13.0177 17.1649 16 17.1649C18.9823 17.1649 21.4 19.6273 21.4 22.6649ZM19.6 22.6649C19.6 24.6899 17.9882 26.3316 16 26.3316C14.0118 26.3316 12.4 24.6899 12.4 22.6649C12.4 20.6399 14.0118 18.9982 16 18.9982C17.9882 18.9982 19.6 20.6399 19.6 22.6649Z" fill="#626262"/>
<path fill-rule="evenodd" clip-rule="evenodd" d="M7 31.8316C7 30.819 7.80589 29.9982 8.8 29.9982H23.2C24.1941 29.9982 25 30.819 25 31.8316V33.6649C25 36.7025 22.5823 39.1649 19.6 39.1649H12.4C9.41766 39.1649 7 36.7025 7 33.6649V31.8316ZM12.4 37.3316C10.4118 37.3316 8.8 35.6899 8.8 33.6649V31.8316H23.2V33.6649C23.2 35.6899 21.5882 37.3316 19.6 37.3316H12.4Z" fill="#626262"/>
<path fill-rule="evenodd" clip-rule="evenodd" d="M0 15.7649C0 12.6721 2.50721 10.1649 5.6 10.1649H50.4C53.4928 10.1649 56 12.6721 56 15.7649V40.5649C56 43.6577 53.4928 46.1649 50.4 46.1649H5.6C2.50721 46.1649 0 43.6577 0 40.5649V15.7649ZM5.6 12.2649H50.4C52.333 12.2649 53.9 13.8319 53.9 15.7649V40.5649C53.9 42.4979 52.333 44.0649 50.4 44.0649H5.6C3.667 44.0649 2.1 42.4979 2.1 40.5649V15.7649C2.1 13.8319 3.667 12.2649 5.6 12.2649Z" fill="#626262"/>
</svg>
