<svg width="19" height="20" viewBox="0 0 19 20" fill="none" className="w-full h-full" xmlns="http://www.w3.org/2000/svg">
<path d="M9.83463 18.2502V16.7377C9.83463 16.6154 9.85755 16.497 9.90339 16.3825C9.94922 16.2679 10.018 16.1647 10.1096 16.0731L14.8992 11.3064C15.0367 11.1689 15.1895 11.0696 15.3576 11.0085C15.5256 10.9474 15.6937 10.9168 15.8617 10.9168C16.0451 10.9168 16.2207 10.9512 16.3888 11.02C16.5569 11.0887 16.7096 11.1918 16.8471 11.3293L17.6951 12.1772C17.8173 12.3147 17.9128 12.4675 17.9815 12.6356C18.0503 12.8036 18.0846 12.9717 18.0846 13.1397C18.0846 13.3078 18.0541 13.4797 17.993 13.6554C17.9319 13.8311 17.8326 13.9877 17.6951 14.1252L12.9284 18.8918C12.8367 18.9835 12.7336 19.0522 12.619 19.0981C12.5044 19.1439 12.386 19.1668 12.2638 19.1668H10.7513C10.4916 19.1668 10.2739 19.079 10.0982 18.9033C9.92248 18.7276 9.83463 18.5099 9.83463 18.2502ZM11.2096 17.7918H12.0805L14.8534 14.996L14.0055 14.1481L11.2096 16.921V17.7918ZM2.5013 19.1668C1.99714 19.1668 1.56554 18.9873 1.20651 18.6283C0.847483 18.2693 0.667969 17.8377 0.667969 17.3335V2.66683C0.667969 2.16266 0.847483 1.73107 1.20651 1.37204C1.56554 1.01301 1.99714 0.833496 2.5013 0.833496H9.07839C9.32283 0.833496 9.55582 0.879329 9.77734 0.970996C9.99887 1.06266 10.1937 1.19252 10.3617 1.36058L14.8076 5.80641C14.9756 5.97447 15.1055 6.16926 15.1971 6.39079C15.2888 6.61232 15.3346 6.8453 15.3346 7.08975V8.396C15.3346 8.65572 15.2468 8.87343 15.0711 9.04912C14.8954 9.22482 14.6777 9.31266 14.418 9.31266C14.1582 9.31266 13.9405 9.22482 13.7648 9.04912C13.5891 8.87343 13.5013 8.65572 13.5013 8.396V7.25016H9.83463C9.57491 7.25016 9.3572 7.16232 9.18151 6.98662C9.00582 6.81093 8.91797 6.59322 8.91797 6.3335V2.66683H2.5013V17.3335H7.08464C7.34436 17.3335 7.56207 17.4213 7.73776 17.597C7.91345 17.7727 8.0013 17.9904 8.0013 18.2502C8.0013 18.5099 7.91345 18.7276 7.73776 18.9033C7.56207 19.079 7.34436 19.1668 7.08464 19.1668H2.5013ZM14.4409 14.5606L14.0055 14.1481L14.8534 14.996L14.4409 14.5606Z" fill="currentColor"/>
</svg>
