<?xml version="1.0" encoding="UTF-8"?>
<svg id="Layer_2" data-name="Layer 2" xmlns="http://www.w3.org/2000/svg" viewBox="0 0 474.77 459.18">
  <defs>
    <style>
      .cls-1 {
        fill: #ff8634;
      }

      .cls-2 {
        fill: #f6b501;
      }

      .cls-3 {
        fill: #ff8635;
      }

      .cls-4 {
        fill: #24d130;
      }

      .cls-5 {
        fill: #efe929;
      }

      .cls-6 {
        fill: #41ace2;
      }

      .cls-7 {
        fill: #fedc7b;
      }

      .cls-8 {
        fill: #bc39d3;
      }

      .cls-9 {
        fill: #473715;
      }

      .cls-10 {
        fill: #ec4b5b;
      }
    </style>
  </defs>
  <g id="Layer_1-2" data-name="Layer 1">
    <g>
      <polygon class="cls-8" points="93.18 0 94.88 21.87 78.18 36.12 99.58 41.29 107.98 61.54 119.48 42.86 141.28 41.11 127.08 24.4 132.18 3.08 111.88 11.43 93.18 0 93.18 0"/>
      <circle class="cls-8" cx="434.48" cy="24.68" r="16"/>
      <circle class="cls-5" cx="210.28" cy="35.18" r="16"/>
      <polygon class="cls-3" points="145.28 61.07 130.08 70.63 164.58 125.88 108.18 128.78 134.68 186.58 151.08 178.98 135.58 145.38 196.18 142.28 145.28 61.07 145.28 61.07"/>
      <path class="cls-4" d="m65.47,99.68c-8.84,0-16,7.16-16,16s7.16,16,16,16c8.84,0,16-7.15,16.01-15.99h0c0-8.85-7.16-16.01-16-16.01h-.01Z"/>
      <polygon class="cls-3" points="421.58 136.88 407.18 153.48 385.38 151.68 396.78 170.48 388.28 190.68 409.68 185.68 426.28 199.98 428.18 178.08 446.88 166.68 426.68 158.18 421.58 136.88 421.58 136.88"/>
      <path class="cls-6" d="m403.88,85.88v-.1c-3.3-10.07-11.5-16.99-20.6-20.27-3.9-1.4-8-2.19-12.2-2.66,2.9-3.26,5.9-6.31,8.9-8.92,6.8-5.84,13.7-9.5,17.6-10.23l-3.4-17.68c-9.2,1.74-17.7,7.18-25.9,14.28-7.6,6.53-14.7,14.66-20.7,23.45-18.8,3.01-37.6,10.67-50.2,21.13-16.1,13.2-30.4,35.8-38.2,59.1-7.4,3.1-14.4,6.8-20.1,10.8-15.5,10.9-23.5,31.8-29.4,50-5.9,18.3-8.8,34.3-8.8,34.3l17.8,3.2s2.7-15,8.1-31.9c5.5-16.9,14.8-35.3,22.7-40.8,1.3-.9,3-1.9,4.5-2.8-.6,5.7-.6,11.4.3,16.8,1.8,11.4,8,22.3,19,28.2,7.8,4.2,16.6,3.2,24,.2,7.4-3.1,14-8.2,19.7-14.2,5.7-6,10.4-13.1,13.2-20.6s3.8-16,.2-23.9h-.1c-3.9-8.4-11.4-13.8-19.4-16.1-8-2.3-16.6-2.2-25.2-.9-1.5.2-2.9.7-4.4,1,7.4-15.8,18-30.7,27.5-38.6,6.2-5.1,16.6-10,27.7-13.6-1.4,3.8-2.5,7.6-3,11.5-1.6,10.5.7,21.9,9.1,29.7,6.1,5.6,14.3,6.5,21.5,5.3,7.1-1.2,14-4.4,20.2-8.5,6.2-4.2,11.7-9.4,15.6-15.5,3.9-6.1,6.5-13.9,4-21.7Zm-115.5,68.2c3.5-.5,6.7-.7,9.7-.7,2.9.1,5.6.5,7.7,1.1,4.3,1.2,6.6,3,8.2,6.4.9,1.9,1,5.4-.7,10-1.7,4.7-5.2,10.1-9.4,14.6s-9.3,8.1-13.5,9.8-6.8,1.6-8.5.7h-.1c-5.8-3.2-8.6-7.8-9.7-15.2-1-6.3-.3-14.3,1.8-22.9,4.9-1.7,9.8-3.1,14.5-3.8Zm96.4-56.2c-2.2,3.4-6.1,7.2-10.5,10.2-4.5,3-9.5,5.1-13.2,5.7-3.8.7-5.5,0-6.3-.7-3.5-3.2-4.5-7.2-3.5-13.9.8-5.4,3.3-11.9,7-18.6,1.2,0,2.3-.2,3.4-.2,6.1-.1,11.5.6,15.5,2.1,5.4,1.9,8.1,4.3,9.5,8.8.4,1.1.2,3.3-1.9,6.6Z"/>
      <path class="cls-9" d="m90.42,208.15c-7.2-.2-11.7,1.5-14.5,4.3s-4.5,7.3-4.3,14.5c.2,7.3,2.6,16.9,7.2,27.6,9.2,21.5,27.3,47.4,51.6,71.8,24.3,24.3,50.3,42.3,71.8,51.5,10.6,4.6,20.2,7,27.5,7.2,7.3.3,11.7-1.5,14.5-4.3s4.6-7.2,4.3-14.5c-.2-7.3-2.6-16.9-7.2-27.6-9.2-21.4-27.2-47.4-51.5-71.7-24.3-24.4-50.3-42.4-71.8-51.6-10.7-4.6-20.3-7-27.6-7.2h0Z"/>
      <polygon class="cls-10" points="327.68 236.58 294.68 290.58 265.58 262.68 253.18 275.68 298.28 318.98 332.08 263.78 370.78 296.08 460.08 257.88 453.08 241.28 373.78 275.28 327.68 236.58 327.68 236.58"/>
      <path class="cls-2" d="m63.91,249.28l-17.64,57.9c41.41,49.1,89.71,76.7,142.11,94.7l21.6-6.6c-3.1-1.1-6.4-2.4-9.7-3.8-24.4-10.4-51.7-29.6-77.3-55.3-25.7-25.7-44.9-53-55.34-77.4-1.41-3.2-2.65-6.4-3.73-9.5h0Z"/>
      <path class="cls-7" d="m40.09,327.48l-14.01,46c28.89,27,59,39.2,90.6,50.2l43.4-13.2c-43.2-17.6-84-43.3-119.99-83Z"/>
      <circle class="cls-1" cx="338.48" cy="344.68" r="16"/>
      <path class="cls-2" d="m20.29,392.58L0,459.18l88.28-26.9c-22.77-9.1-45.78-20.7-67.99-39.7Z"/>
      <rect class="cls-8" x="49.47" y="174.99" width="22.01" height="22.01" transform="translate(84.9 -8.05) rotate(25.19)"/>
      <rect class="cls-4" x="449.08" y="302.98" width="22.01" height="22.01" transform="translate(542.77 -236.85) rotate(64.23)"/>
      <rect class="cls-6" x="291.87" y="381.58" width="22.01" height="22.01" transform="translate(524.69 -50.87) rotate(64.23)"/>
      <rect class="cls-4" x="282.12" y="19.77" width="22.01" height="22.01" transform="translate(193.37 -246.57) rotate(64.23)"/>
    </g>
  </g>
</svg>