<svg width="56" height="57" viewBox="0 0 56 57" fill="none" xmlns="http://www.w3.org/2000/svg">
<path fill-rule="evenodd" clip-rule="evenodd" d="M5.01061 50.0253C5.05602 48.7499 5.48115 46.7913 5.48115 46.7913C5.84473 44.2926 7.2413 43.0615 9.33001 41.6425L14.2744 38.2837C15.4823 37.4631 17.0462 37.6471 18.1024 38.4983C20.0123 40.0373 23.8875 42.5794 28.4782 42.5293C32.7044 42.4833 36.139 40.1055 37.8869 38.5967C38.9245 37.701 40.5114 37.4524 41.7621 38.2594L46.7012 41.4461C49.076 42.9783 50.5931 44.5369 50.7981 47.3556C50.7981 47.3556 51.2155 49.0458 50.9976 50.0967C50.5977 52.0248 37.4151 54.1185 28.4782 54.1693C19.1719 54.2222 4.9285 52.3314 5.01061 50.0253Z" fill="white"/>
<path fill-rule="evenodd" clip-rule="evenodd" d="M41.9819 22.1757C42.1163 18.071 41.5285 13.8185 39.3968 10.5697C37.2137 7.24265 32.8086 5.12367 27.8613 5.16553C22.9644 5.20696 18.6197 7.32718 16.5047 10.6517C14.4431 13.8924 13.903 18.1167 14.0136 22.1757C14.228 30.0422 19.7461 38.083 27.8613 38.1643C36.0479 38.2463 41.7143 30.347 41.9819 22.1757Z" fill="white"/>
<path fill-rule="evenodd" clip-rule="evenodd" d="M39.9829 22.1103C40.1117 18.178 39.5271 14.4139 37.7247 11.6669C35.9938 9.02909 32.304 7.12801 27.8782 7.16546C23.4833 7.20264 19.858 9.10678 18.1922 11.7252C16.4481 14.4668 15.9063 18.2107 16.0129 22.1212C16.1086 25.6316 17.3952 29.1832 19.5319 31.8344C21.6536 34.4671 24.5335 36.1308 27.8813 36.1644C34.5785 36.2314 39.7361 29.6481 39.9829 22.1103ZM41.9819 22.1757C42.1163 18.071 41.5285 13.8185 39.3968 10.5697C37.2137 7.24265 32.8086 5.12367 27.8613 5.16553C22.9644 5.20696 18.6197 7.32718 16.5047 10.6517C14.4431 13.8924 13.903 18.1167 14.0136 22.1757C14.228 30.0422 19.7461 38.083 27.8613 38.1643C36.0479 38.2463 41.7143 30.347 41.9819 22.1757Z" fill="#626262"/>
<path fill-rule="evenodd" clip-rule="evenodd" d="M16.8473 40.0512C16.3938 39.6857 15.794 39.6647 15.3981 39.9337L10.4537 43.2925C8.82914 44.3961 7.74292 45.1314 7.46014 47.0749L6.98959 50.3089C6.91007 50.8554 6.40255 51.234 5.85602 51.1545C5.30949 51.075 4.93091 50.5674 5.01043 50.0209L5.48098 46.787C5.84456 44.2882 7.24112 43.0571 9.32983 41.6382L14.2743 38.2793C15.4821 37.4587 17.046 37.6427 18.1022 38.4939C20.0121 40.0329 23.8873 42.575 28.478 42.525C32.7042 42.4789 36.1388 40.1011 37.8867 38.5923C38.9244 37.6966 40.5112 37.448 41.7619 38.255L46.701 41.4417C49.0758 42.9739 50.5929 44.5326 50.7979 47.3512L50.9974 50.0923C51.0374 50.6432 50.6234 51.1222 50.0726 51.1623C49.5217 51.2023 49.0427 50.7883 49.0026 50.2375L48.8032 47.4964C48.6437 45.3041 47.4637 44.314 45.6167 43.1223L40.6776 39.9355C40.2692 39.672 39.6506 39.7118 39.1936 40.1063C37.3191 41.7243 33.4331 44.4711 28.4998 44.5248C23.2048 44.5825 18.8718 41.6826 16.8473 40.0512Z" fill="#626262"/>
<path fill-rule="evenodd" clip-rule="evenodd" d="M33.9456 27.8395C34.1253 28.3617 33.8477 28.9308 33.3255 29.1105C31.388 29.7775 29.7832 30.1529 28.1068 30.1604C26.4317 30.1679 24.759 29.8078 22.6828 29.1134C22.159 28.9382 21.8765 28.3715 22.0516 27.8478C22.2268 27.324 22.7935 27.0415 23.3172 27.2166C25.2903 27.8766 26.7294 28.1665 28.0978 28.1604C29.465 28.1543 30.8356 27.8524 32.6745 27.2194C33.1967 27.0397 33.7658 27.3173 33.9456 27.8395Z" fill="#626262"/>
<path d="M24 21.1649C24 21.7172 23.5523 22.1649 23 22.1649C22.4477 22.1649 22 21.7172 22 21.1649C22 20.6126 22.4477 20.1649 23 20.1649C23.5523 20.1649 24 20.6126 24 21.1649Z" fill="#626262"/>
<path d="M34 21.1649C34 21.7172 33.5523 22.1649 33 22.1649C32.4477 22.1649 32 21.7172 32 21.1649C32 20.6126 32.4477 20.1649 33 20.1649C33.5523 20.1649 34 20.6126 34 21.1649Z" fill="#626262"/>
<path fill-rule="evenodd" clip-rule="evenodd" d="M24.0412 19.5189C22.8162 19.3147 21.558 19.5039 20.4472 20.0593C19.9532 20.3063 19.3526 20.1061 19.1056 19.6121C18.8586 19.1181 19.0588 18.5175 19.5528 18.2705C21.0417 17.526 22.7281 17.2725 24.37 17.5461L25.1644 17.6785C25.7092 17.7693 26.0772 18.2845 25.9864 18.8293C25.8956 19.3741 25.3804 19.7421 24.8356 19.6513L24.0412 19.5189Z" fill="#626262"/>
<path fill-rule="evenodd" clip-rule="evenodd" d="M31.9588 19.5189C33.1838 19.3147 34.442 19.5039 35.5528 20.0593C36.0468 20.3063 36.6474 20.1061 36.8944 19.6121C37.1414 19.1181 36.9412 18.5175 36.4472 18.2705C34.9583 17.526 33.2719 17.2725 31.63 17.5461L30.8356 17.6785C30.2908 17.7693 29.9228 18.2845 30.0136 18.8293C30.1044 19.3741 30.6196 19.7421 31.1644 19.6513L31.9588 19.5189Z" fill="#626262"/>
</svg>
